<?xml version="1.0" encoding="UTF-8" standalone="no"?>
<svg
   xmlns:dc="http://purl.org/dc/elements/1.1/"
   xmlns:cc="http://creativecommons.org/ns#"
   xmlns:rdf="http://www.w3.org/1999/02/22-rdf-syntax-ns#"
   xmlns:svg="http://www.w3.org/2000/svg"
   xmlns="http://www.w3.org/2000/svg"
   version="1.0"
   width="34.22543pt"
   height="34.331188pt"
   viewBox="0 0 34.22543 34.331188"
   preserveAspectRatio="xMidYMid meet"
   id="svg4">
  <metadata
     id="metadata10">
    <rdf:RDF>
      <cc:Work
         rdf:about="">
        <dc:format>image/svg+xml</dc:format>
        <dc:type
           rdf:resource="http://purl.org/dc/dcmitype/StillImage" />
        <dc:title></dc:title>
      </cc:Work>
    </rdf:RDF>
  </metadata>
  <defs
     id="defs8" />
  <g
     transform="matrix(0.1,0,0,-0.1,-92.571132,302.12058)"
     fill="#000000"
     stroke="none"
     id="g2" />
  <path
     style="fill:#2e9fe5;stroke:none;stroke-width:0.1"
     d="m 15.870298,0.05298327 c -2.5349,0.215683 -4.9731,0.904697 -7.2,2.15020203 -1.932332,1.08076 -3.660452,2.56554 -5.032262,4.30155 -5.83505,7.3842007 -4.50260999,18.4574007 2.93226,24.2440017 1.582642,1.2317 3.389702,2.1744 5.300002,2.7824 2.1785,0.6933 4.5221,0.9321 6.8,0.7316 2.4037,-0.2116 4.6818,-0.9519 6.8,-2.0947 1.8684,-1.0081 3.534,-2.4265 4.8805,-4.0633 5.0319,-6.116901 5.1704,-15.110601 0.3704,-21.4000017 -1.0822,-1.41812 -2.3828,-2.6451 -3.8509,-3.65743 -1.588,-1.09505 -3.3371,-1.91827 -5.2,-2.42203803 -1.8777,-0.507776 -3.8575,-0.737561 -5.8,-0.572284 m 6.8039,8.67782303 c 0.2758,0.11198 0.3433,0.4192 0.3725,0.68514 0.0719,0.6531897 0.0236,1.3324897 0.0236,1.9887897 0,0.6972 0.0269,1.4008 -0.01,2.0972 -0.0167,0.3157 -0.0491,0.6866 -0.3184,0.8969 -0.4179,0.3262 -1.1775,0.2066 -1.6716,0.2057 -0.3622,-7e-4 -0.7844,0.041 -1.1299,-0.0894 -0.7133,-0.2691 -0.4703,-1.6193 -0.4703,-2.2104 0,-0.7702 -0.2613,-2.1678 0.3211,-2.7740897 0.3841,-0.39984 1.0664,-0.49649 1.5788,-0.63466 0.3797,-0.10236 0.9142,-0.323411 1.304,-0.16518 m -8.3935,2.2521297 c 0.5693,0.1746 0.4216,1.2096 0,1.4621 -0.5485,0.3285 -1.9717,0.2776 -2.5615,0.0712 -0.5145,-0.1801 -0.3995,-0.6702 0.004,-0.9047 0.5472,-0.318 1.9293,-0.8213 2.5574,-0.6286 m 12.9896,7.6218 c -0.3626,0.6373 -1.0357,0.7452 -1.7,0.9273 l -3.9,1.0635 c -0.5057,0.1378 -1.2852,0.5044 -1.8104,0.3385 -0.3146,-0.0994 -0.355,-0.4563 -0.3777,-0.7378 -0.0423,-0.5276 0.0203,-1.2171 -0.5621,-1.4704 -0.563,-0.2449 -1.35,-0.1211 -1.9498,-0.1211 h -3.4 c -0.5671,0 -1.2159,0.0807 -1.7691,-0.0646 -1.131,-0.2971 -0.2384,-1.9403 -1.0205,-2.5681 -0.3571,-0.2867 -0.8787,-0.2623 -1.31044,-0.2661 -0.86889,-0.0078 -1.73937,0.0387 -2.599962,-0.1012 0.55467,-0.5359 1.278112,-0.6556 2.000002,-0.8579 1.1982,-0.3356 2.3996,-0.6599 3.6,-0.9875 0.518,-0.1413 1.3723,-0.5444 1.9039,-0.3285 0.8463,0.3436 -0.0344,1.8431 0.9414,2.1843 0.5566,0.1947 1.2739,0.0896 1.8547,0.0896 h 3.4 c 0.5718,0 1.2186,-0.0764 1.7764,0.0703 1.2311,0.3238 0.2936,1.9019 1.0447,2.57 0.3096,0.2754 0.7922,0.2535 1.1791,0.2581 0.8997,0.0108 1.8,0.0016 2.6998,0.0016 m -15.7789,1.3597 c 0.322,-0.2127 0.8128,-0.1578 1.1791,-0.1593 0.4903,-0.0019 1.2473,-0.1257 1.6787,0.1593 0.2763,0.1826 0.2988,0.5455 0.313,0.8452 0.0314,0.6629 0.008,1.3315 0.008,1.9951 0,0.6811 0.1988,1.7944 -0.4703,2.2289 -0.3032,0.1969 -0.6861,0.2755 -1.03,0.3707 -0.4522,0.1251 -1.2249,0.470301 -1.6786,0.2205 -0.284,-0.1564 -0.2995,-0.5406 -0.313,-0.825 -0.0346,-0.7293 -0.008,-1.4651 -0.008,-2.1951 0,-0.6278 -0.0311,-1.2654 0.0131,-1.8919 0.0193,-0.2736 0.0594,-0.5841 0.308,-0.7484 m 8.3685,2 c 0.5568,-0.3334 1.8763,-0.251 2.4863,-0.0955 0.5073,0.1293 0.6229,0.5918 0.1658,0.8881 -0.56,0.363 -1.9093,0.7997 -2.5771,0.6798 -0.6363,-0.1141 -0.5276,-1.2014 -0.075,-1.4724 z"
     id="path32" />
  <path
     style="fill:#000000;stroke-width:0.1"
     id="path28"
     d="" />
  <path
     style="fill:#000000;stroke-width:0.1"
     id="path26"
     d="" />
</svg>
