<?xml version="1.0" encoding="UTF-8" standalone="no"?>
<svg
   xmlns:dc="http://purl.org/dc/elements/1.1/"
   xmlns:cc="http://creativecommons.org/ns#"
   xmlns:rdf="http://www.w3.org/1999/02/22-rdf-syntax-ns#"
   xmlns:svg="http://www.w3.org/2000/svg"
   xmlns="http://www.w3.org/2000/svg"
   version="1.1"
   id="svg2"
   xml:space="preserve"
   width="203.66559"
   height="54.303066"
   viewBox="0 0 203.66559 54.303066"><metadata
     id="metadata8"><rdf:RDF><cc:Work
         rdf:about=""><dc:format>image/svg+xml</dc:format><dc:type
           rdf:resource="http://purl.org/dc/dcmitype/StillImage" /><dc:title></dc:title></cc:Work></rdf:RDF></metadata><defs
     id="defs6"><clipPath
       clipPathUnits="userSpaceOnUse"
       id="clipPath18"><path
         d="M 0,198.425 H 198.425 V 0 H 0 Z"
         id="path16" /></clipPath></defs><g
     id="g10"
     transform="matrix(1.3333333,0,0,-1.3333333,-20.982133,159.52813)"><g
       id="g12"><g
         id="g14"
         clip-path="url(#clipPath18)"><g
           id="g20"
           transform="translate(62.9855,94.1981)"><path
             d="M 0,0 H -2.656 V 16.571 H 0 v -6.5 c 0.755,0.984 2.014,1.396 3.181,1.396 2.747,0 4.074,-1.968 4.074,-4.418 V 0 H 4.6 V 6.592 C 4.6,7.965 3.982,9.063 2.312,9.063 0.847,9.063 0.045,7.965 0,6.545 Z"
             style="fill:#009bdf;fill-opacity:1;fill-rule:nonzero;stroke:none"
             id="path22" /></g><g
           id="g24"
           transform="translate(79.567,98.8211)"><path
             d="M 0,0 V 0.504 L -2.906,0.069 c -0.824,-0.137 -1.489,-0.595 -1.489,-1.51 0,-0.756 0.573,-1.443 1.625,-1.443 1.489,0 2.77,0.71 2.77,2.884 m -3.684,1.762 2.86,0.435 C -0.183,2.289 0,2.609 0,2.999 0,3.937 -0.641,4.692 -2.105,4.692 -3.501,4.692 -4.28,3.8 -4.395,2.678 l -2.426,0.549 c 0.207,1.923 1.946,3.64 4.693,3.64 3.433,0 4.737,-1.946 4.737,-4.166 v -5.539 c 0,-1.007 0.115,-1.671 0.138,-1.785 H 0.275 c -0.023,0.068 -0.115,0.526 -0.115,1.419 -0.526,-0.847 -1.625,-1.763 -3.433,-1.763 -2.334,0 -3.776,1.603 -3.776,3.364 0,1.993 1.465,3.091 3.365,3.365"
             style="fill:#009bdf;fill-opacity:1;fill-rule:nonzero;stroke:none"
             id="path26" /></g><g
           id="g28"
           transform="translate(86.9489,99.7825)"><path
             d="m 0,0 c 0,-2.243 1.442,-3.501 3.113,-3.501 1.74,0 2.541,1.212 2.792,2.059 L 8.24,-2.289 C 7.713,-4.028 6.042,-5.928 3.113,-5.928 c -3.273,0 -5.768,2.541 -5.768,5.928 0,3.433 2.495,5.905 5.699,5.905 2.998,0 4.646,-1.877 5.104,-3.662 L 5.768,1.374 C 5.516,2.357 4.761,3.456 3.067,3.456 1.442,3.456 0,2.243 0,0"
             style="fill:#009bdf;fill-opacity:1;fill-rule:nonzero;stroke:none"
             id="path30" /></g><g
           id="g32"
           transform="translate(103.1505,100.6292)"><path
             d="m 0,0 4.669,-6.431 h -3.25 l -3.273,4.555 -1.373,-1.443 V -6.431 H -5.859 V 10.14 h 2.632 V 0.207 l 4.28,4.508 h 3.525 z"
             style="fill:#009bdf;fill-opacity:1;fill-rule:nonzero;stroke:none"
             id="path34" /></g><g
           id="g36"
           transform="translate(110.6544,97.8602)"><path
             d="m 0,0 c 0.091,-1.007 0.847,-1.899 2.266,-1.899 1.097,0 1.671,0.594 1.671,1.281 0,0.595 -0.414,1.053 -1.305,1.236 L 0.983,0.984 c -1.967,0.434 -2.998,1.717 -2.998,3.25 0,1.946 1.786,3.594 4.097,3.594 3.113,0 4.12,-2.015 4.303,-3.113 L 4.142,4.074 C 4.051,4.715 3.57,5.745 2.082,5.745 1.144,5.745 0.48,5.149 0.48,4.463 0.48,3.868 0.914,3.433 1.602,3.296 L 3.295,2.952 C 5.401,2.495 6.5,1.213 6.5,-0.435 c 0,-1.694 -1.374,-3.571 -4.212,-3.571 -3.227,0 -4.464,2.107 -4.6,3.364 z"
             style="fill:#009bdf;fill-opacity:1;fill-rule:nonzero;stroke:none"
             id="path38" /></g><g
           id="g40"
           transform="translate(123.1691,105.3445)"><path
             d="M 0,0 H 2.312 V -2.357 H 0 V -7.53 c 0,-0.985 0.435,-1.397 1.419,-1.397 0.366,0 0.802,0.07 0.916,0.092 v -2.197 c -0.16,-0.069 -0.664,-0.252 -1.625,-0.252 -2.061,0 -3.342,1.236 -3.342,3.319 v 5.608 h -2.06 V 0 h 0.572 c 1.19,0 1.717,0.755 1.717,1.739 V 3.41 H 0 Z"
             style="fill:#009bdf;fill-opacity:1;fill-rule:nonzero;stroke:none"
             id="path42" /></g><g
           id="g44"
           transform="translate(134.9855,100.9959)"><path
             d="M 0,0 C -0.047,1.305 -0.916,2.472 -2.747,2.472 -4.418,2.472 -5.379,1.19 -5.471,0 Z m 2.54,-3.616 c -0.596,-1.946 -2.357,-3.526 -5.036,-3.526 -3.021,0 -5.698,2.198 -5.698,5.975 0,3.524 2.608,5.859 5.424,5.859 3.433,0 5.447,-2.266 5.447,-5.791 0,-0.435 -0.045,-0.801 -0.069,-0.847 h -8.147 c 0.068,-1.694 1.395,-2.907 3.043,-2.907 1.602,0 2.427,0.847 2.793,1.946 z"
             style="fill:#009bdf;fill-opacity:1;fill-rule:nonzero;stroke:none"
             id="path46" /></g><g
           id="g48"
           transform="translate(146.5382,102.7122)"><path
             d="m 0,0 c -0.297,0.046 -0.595,0.068 -0.87,0.068 -2.059,0 -2.998,-1.19 -2.998,-3.273 V -8.514 H -6.522 V 2.632 h 2.585 V 0.847 C -3.41,2.06 -2.175,2.77 -0.71,2.77 -0.389,2.77 -0.114,2.724 0,2.701 Z"
             style="fill:#009bdf;fill-opacity:1;fill-rule:nonzero;stroke:none"
             id="path50" /></g><g
           id="g52"
           transform="translate(147.3644,97.7908)"><path
             d="M 0,0 C 1.03,0 1.877,-0.847 1.877,-1.876 1.877,-2.906 1.03,-3.73 0,-3.73 c -1.03,0 -1.854,0.824 -1.854,1.854 C -1.854,-0.847 -1.03,0 0,0"
             style="fill:#009bdf;fill-opacity:1;fill-rule:nonzero;stroke:none"
             id="path54" /></g><path
           d="m 152.046,105.345 h 2.633 V 94.199 h -2.633 z m 1.305,5.652 c 0.961,0 1.739,-0.777 1.739,-1.739 0,-0.961 -0.778,-1.716 -1.739,-1.716 -0.939,0 -1.717,0.755 -1.717,1.716 0,0.962 0.778,1.739 1.717,1.739"
           style="fill:#009bdf;fill-opacity:1;fill-rule:nonzero;stroke:none"
           id="path56" /><g
           id="g58"
           transform="translate(165.8078,99.7825)"><path
             d="m 0,0 c 0,2.312 -1.465,3.502 -3.112,3.502 -1.625,0 -3.113,-1.19 -3.113,-3.502 0,-2.312 1.488,-3.547 3.113,-3.547 C -1.465,-3.547 0,-2.334 0,0 m 2.678,0 c 0,-3.433 -2.449,-5.928 -5.79,-5.928 -3.32,0 -5.769,2.495 -5.769,5.928 0,3.411 2.449,5.905 5.769,5.905 3.341,0 5.79,-2.494 5.79,-5.905"
             style="fill:#009bdf;fill-opacity:1;fill-rule:nonzero;stroke:none"
             id="path60" /></g><g
           id="g62"
           transform="translate(43.0416,100.6321)"><path
             d="M 0,0 C -0.082,-0.072 -0.352,-0.13 -0.567,-0.189 -1.874,-0.547 -6.092,-1.7 -7.4,-2.057 c -0.216,-0.059 -0.391,0.074 -0.391,0.298 v 1.764 c 0,0.224 -0.18,0.405 -0.404,0.405 h -7.5 c -0.223,0 -0.404,0.18 -0.404,0.404 v 2.052 c 0,0.224 -0.181,0.405 -0.405,0.405 h -3.6 c -0.142,0 -0.257,0.114 -0.257,0.255 0,0.082 0.035,0.139 0.078,0.179 0.081,0.075 0.353,0.133 0.569,0.192 l 6.805,1.86 c 0.215,0.059 0.389,-0.074 0.389,-0.298 V 3.675 c 0,-0.223 0.182,-0.404 0.405,-0.404 h 7.494 c 0.224,0 0.405,-0.181 0.405,-0.405 V 0.834 c 0,-0.224 0.181,-0.405 0.404,-0.405 h 3.635 c 0.141,0 0.256,-0.114 0.256,-0.256 C 0.079,0.094 0.043,0.039 0,0 m -4.216,-3.27 c 0,-0.224 -0.175,-0.452 -0.39,-0.511 L -7.4,-4.544 c -0.216,-0.059 -0.39,0.074 -0.39,0.297 v 1.042 c 0,0.224 0.181,0.406 0.404,0.406 h 2.765 c 0.224,0 0.405,-0.182 0.405,-0.406 z m -8.309,-2.27 c 0,-0.223 -0.175,-0.453 -0.39,-0.511 l -2.794,-0.764 c -0.215,-0.059 -0.39,0.075 -0.39,0.298 v 5.376 c 0,0.224 0.181,0.405 0.405,0.405 h 2.764 c 0.223,0 0.405,-0.181 0.405,-0.405 z m -3.574,12.455 c 0,0.223 0.175,0.452 0.391,0.511 l 2.792,0.763 c 0.216,0.06 0.391,-0.074 0.391,-0.297 V 6.85 c 0,-0.224 -0.181,-0.405 -0.404,-0.405 h -2.765 c -0.224,0 -0.405,0.181 -0.405,0.405 z m 8.308,2.27 c 0,0.224 0.175,0.452 0.391,0.512 l 2.794,0.763 c 0.215,0.059 0.39,-0.075 0.39,-0.298 V 4.786 c 0,-0.224 -0.181,-0.405 -0.405,-0.405 h -2.765 c -0.223,0 -0.405,0.181 -0.405,0.405 z m -2.35,9.829 c -9.464,0 -17.164,-7.7 -17.164,-17.164 0,-9.464 7.7,-17.163 17.164,-17.163 9.464,0 17.163,7.699 17.163,17.163 0,9.464 -7.699,17.164 -17.163,17.164"
             style="fill:#009bdf;fill-opacity:1;fill-rule:nonzero;stroke:none"
             id="path64" /></g><g
           id="g66"
           transform="translate(86.1051,87.7078)"><path
             d="M 0,0 V -8.789 H 79.475 L 82.36,0 Z"
             style="fill:#50bb74;fill-opacity:1;fill-rule:nonzero;stroke:none"
             id="path68" /></g><g
           id="g70"
           transform="translate(91.504,82.827)"><path
             d="M 0,0 H 1.012 L 0.506,1.661 Z M 1.265,-0.82 H -0.253 L -0.602,-1.948 H -1.559 L 0.062,2.837 H 0.95 L 2.57,-1.948 H 1.613 Z"
             style="fill:#ffffff;fill-opacity:1;fill-rule:nonzero;stroke:none"
             id="path72" /></g><g
           id="g74"
           transform="translate(98.255,85.6639)"><path
             d="m 0,0 v -4.785 h -0.937 l -1.756,3.158 V -4.785 H -3.582 V 0 h 0.936 l 1.757,-3.158 V 0 Z"
             style="fill:#ffffff;fill-opacity:1;fill-rule:nonzero;stroke:none"
             id="path76" /></g><g
           id="g78"
           transform="translate(102.1642,82.827)"><path
             d="M 0,0 H 1.012 L 0.506,1.661 Z M 1.265,-0.82 H -0.253 L -0.602,-1.948 H -1.559 L 0.062,2.837 H 0.95 L 2.57,-1.948 H 1.613 Z"
             style="fill:#ffffff;fill-opacity:1;fill-rule:nonzero;stroke:none"
             id="path80" /></g><g
           id="g82"
           transform="translate(106.0441,80.8787)"><path
             d="m 0,0 -1.606,4.785 h 0.984 L 0.451,1.244 1.524,4.785 H 2.509 L 0.902,0 Z"
             style="fill:#ffffff;fill-opacity:1;fill-rule:nonzero;stroke:none"
             id="path84" /></g><g
           id="g86"
           transform="translate(112.6574,85.6639)"><path
             d="m 0,0 v -4.785 h -0.937 l -1.756,3.158 V -4.785 H -3.582 V 0 h 0.936 l 1.757,-3.158 V 0 Z"
             style="fill:#ffffff;fill-opacity:1;fill-rule:nonzero;stroke:none"
             id="path88" /></g><g
           id="g90"
           transform="translate(116.5997,85.6639)"><path
             d="m 0,0 v -0.82 h -2.071 v -1.005 h 1.661 v -0.821 h -1.661 v -1.319 h 2.139 v -0.82 H -2.96 V 0 Z"
             style="fill:#ffffff;fill-opacity:1;fill-rule:nonzero;stroke:none"
             id="path92" /></g><g
           id="g94"
           transform="translate(117.3351,85.6639)"><path
             d="M 0,0 H 3.541 V -0.82 H 2.215 V -4.785 H 1.326 V -0.82 H 0 Z"
             style="fill:#ffffff;fill-opacity:1;fill-rule:nonzero;stroke:none"
             id="path96" /></g><g
           id="g98"
           transform="translate(126.4035,84.0643)"><path
             d="m 0,0 c -0.185,0.485 -0.52,0.834 -1.183,0.834 -0.738,0 -1.36,-0.52 -1.36,-1.627 0,-1.107 0.622,-1.627 1.36,-1.627 0.663,0 0.998,0.349 1.183,0.834 L 0.8,-1.791 C 0.574,-2.707 -0.144,-3.24 -1.183,-3.24 c -1.196,0 -2.262,0.847 -2.262,2.447 0,1.6 1.066,2.447 2.262,2.447 1.039,0 1.757,-0.533 1.983,-1.449 z"
             style="fill:#ffffff;fill-opacity:1;fill-rule:nonzero;stroke:none"
             id="path100" /></g><g
           id="g102"
           transform="translate(128.7453,83.2713)"><path
             d="m 0,0 c 0,-1.135 0.636,-1.627 1.354,-1.627 0.717,0 1.353,0.492 1.353,1.627 0,1.135 -0.636,1.627 -1.353,1.627 C 0.636,1.627 0,1.135 0,0 m 3.609,0 c 0,-1.661 -1.046,-2.447 -2.255,-2.447 -1.21,0 -2.256,0.786 -2.256,2.447 0,1.661 1.046,2.447 2.256,2.447 1.209,0 2.255,-0.786 2.255,-2.447"
             style="fill:#ffffff;fill-opacity:1;fill-rule:nonzero;stroke:none"
             id="path104" /></g><g
           id="g106"
           transform="translate(133.3029,85.6639)"><path
             d="M 0,0 H 0.998 L 2.126,-2.987 3.254,0 H 4.252 V -4.785 H 3.363 v 2.953 L 2.447,-4.348 H 1.805 L 0.889,-1.832 V -4.785 H 0 Z"
             style="fill:#ffffff;fill-opacity:1;fill-rule:nonzero;stroke:none"
             id="path108" /></g><g
           id="g110"
           transform="translate(138.6193,85.6639)"><path
             d="M 0,0 H 0.998 L 2.126,-2.987 3.254,0 H 4.252 V -4.785 H 3.363 v 2.953 L 2.447,-4.348 H 1.805 L 0.889,-1.832 V -4.785 H 0 Z"
             style="fill:#ffffff;fill-opacity:1;fill-rule:nonzero;stroke:none"
             id="path112" /></g><g
           id="g114"
           transform="translate(147.3605,82.6971)"><path
             d="m 0,0 c 0,-1.278 -0.738,-1.873 -1.784,-1.873 -1.046,0 -1.784,0.595 -1.784,1.873 v 2.967 h 0.888 v -2.981 c 0,-0.697 0.294,-1.039 0.896,-1.039 0.601,0 0.895,0.342 0.895,1.039 V 2.967 H 0 Z"
             style="fill:#ffffff;fill-opacity:1;fill-rule:nonzero;stroke:none"
             id="path116" /></g><g
           id="g118"
           transform="translate(151.7863,85.6639)"><path
             d="m 0,0 v -4.785 h -0.937 l -1.756,3.158 V -4.785 H -3.582 V 0 h 0.936 l 1.757,-3.158 V 0 Z"
             style="fill:#ffffff;fill-opacity:1;fill-rule:nonzero;stroke:none"
             id="path120" /></g><path
           d="m 153.656,80.879 h -0.889 v 4.785 h 0.889 z"
           style="fill:#ffffff;fill-opacity:1;fill-rule:nonzero;stroke:none"
           id="path122" /><g
           id="g124"
           transform="translate(154.424,85.6639)"><path
             d="M 0,0 H 3.541 V -0.82 H 2.215 V -4.785 H 1.326 V -0.82 H 0 Z"
             style="fill:#ffffff;fill-opacity:1;fill-rule:nonzero;stroke:none"
             id="path126" /></g><g
           id="g128"
           transform="translate(159.4454,85.6639)"><path
             d="M 0,0 0.868,-1.859 1.736,0 H 2.693 L 1.312,-2.748 V -4.785 H 0.424 v 2.037 L -0.957,0 Z"
             style="fill:#ffffff;fill-opacity:1;fill-rule:nonzero;stroke:none"
             id="path130" /></g></g></g></g></svg>
